<svg width="163" height="53" viewBox="0 0 163 53" fill="none" xmlns="http://www.w3.org/2000/svg">
<path d="M0 10.6505C0 5.12763 4.47715 0.650482 10 0.650482H152.27C157.793 0.650482 162.27 5.12764 162.27 10.6505V42.0291C162.27 47.552 157.793 52.0291 152.27 52.0291H9.99999C4.47714 52.0291 0 47.552 0 42.0291V10.6505Z" fill="black"/>
<path d="M0 7.61678C0 3.7694 3.93645 0.650482 8.79231 0.650482H153.478C158.334 0.650482 162.27 3.7694 162.27 7.61679V45.0628C162.27 48.9102 158.334 52.0291 153.478 52.0291H8.7923C3.93644 52.0291 0 48.9102 0 45.0628V7.61678Z" fill="black"/>
</svg>
